<svg width="24" height="29" viewBox="0 0 24 29" fill="none" xmlns="http://www.w3.org/2000/svg">
<path d="M21.26 15.5117H17.4431V13.1511H21.26V15.5117ZM21.26 16.8604H17.4431V19.221H21.26V16.8604ZM21.26 5.73255H17.4431V8.093H21.26V5.73261V5.73255ZM21.26 9.44185H17.4431V11.8023H21.26V9.44185ZM21.26 20.5697H17.4431V22.9303H21.26V20.5697V20.5697ZM23.8964 25.2233C23.7873 25.9247 23.1057 25.9415 22.6504 25.9652H14.1715V29H12.4784L0 26.3023V2.70107L12.5521 0H14.1715V2.68756H22.3587C22.8195 2.71115 23.3266 2.67069 23.7273 3.01125C24.0081 3.51032 23.9809 4.14431 24 4.71753L23.9891 22.2727C23.9755 23.2539 24.0627 24.2555 23.8964 25.2233V25.2233ZM9.99745 19.9325C9.24501 18.0441 8.47894 16.1692 7.72917 14.2808C8.47073 12.443 9.20142 10.5985 9.92934 8.75394C9.31045 8.79105 8.69156 8.83824 8.07543 8.89222C7.61465 10.2781 7.07756 11.627 6.7177 13.0601C6.38236 11.7079 5.93798 10.4062 5.53176 9.08778C4.93195 9.12825 4.33214 9.17208 3.73237 9.21591C4.36486 10.9425 5.03831 12.6453 5.65172 14.382C4.92923 16.068 4.25311 17.7777 3.55242 19.4739C4.14947 19.5042 4.74656 19.5346 5.34361 19.5446C5.76895 18.2026 6.29784 16.9111 6.66862 15.542C7.00125 17.0122 7.56558 18.3712 8.02908 19.7773C8.68612 19.8347 9.34045 19.8853 9.9975 19.9325H9.99745ZM22.6997 4.28908H14.1715V5.73255H16.3526V8.093H14.1715V9.44185H16.3526V11.8023H14.1715V13.1511H16.3526V15.5117H14.1715V16.8604H16.3526V19.221H14.1715V20.5697H16.3526V22.9303H14.1715V24.4897H22.6997V4.28908Z" fill="black"/>
</svg>
